:SAMPLES-PER-SECOND 30
:FULLY-SPECIFIED
:DEGREES
171
root  43.8595 34.5237 -19.2954 3.77739 -45.5939 -3.65053
RightUpLeg  -35.0287 -10.6542 -10.1194
RightLeg  55.6455 -2.78498 -4.79412
RightFoot  -17.7251 0.558324 12.1286
RightToes  0.000482159 0.542163 -0.142577
Spine  36.0472 2.29146 -15.1543
Spine1  -6.15138 -2.18933 -2.38516
HEad  -50.9782 -8.52093 1.38801
LeftShoulder1  8.86394 -15.6134 -40.1064
LeftArm  -2.01525 -15.0304 -34.7655
LeftForeArm  135.258 -81.6576 -94.7688
LeftHand  -0.25398 0.0180481 5.50724
RightShoulder  6.80186 11.6793 38.7219
RightArm  2.19537 -11.6013 37.3063
RightForeArm  27.183 72.104 35.0305
RightHand  -3.14817 7.79894 -27.5974
LeftUpLeg  -24.3114 7.28353 20.5164
LeftLeg  52.5023 1.02003 1.90929
LeftFoot  -23.8993 -2.05852 -19.8393
LeftToes  1.06246e-005 4.65855e-005 -8.18502e-006
172
root  44.641 34.8108 -19.2636 4.84605 -43.6761 -4.29721
RightUpLeg  -34.528 -9.18483 -9.47117
RightLeg  55.7133 -3.11693 -5.35316
RightFoot  -18.1966 0.618582 12.3547
RightToes  0.000482159 0.542163 -0.142577
Spine  37.1833 2.41376 -14.1119
Spine1  -5.46584 -1.78024 -3.38215
HEad  -46.1139 -7.29949 0.522955
LeftShoulder1  8.73695 -15.3372 -40.1137
LeftArm  -2.47954 -11.9225 -34.3225
LeftForeArm  122.292 -81.5843 -81.9892
LeftHand  -0.25398 0.0180481 5.50724
RightShoulder  7.21448 12.1257 40.0049
RightArm  3.28314 -9.80156 38.4933
RightForeArm  24.7953 68.7107 27.6684
RightHand  -2.92827 7.55302 -26.2417
LeftUpLeg  -26.2859 6.82264 19.6258
LeftLeg  51.5823 0.818532 1.57525
LeftFoot  -23.4639 -1.9463 -19.4719
LeftToes  1.06246e-005 4.65855e-005 -8.18502e-006
173
root  45.226 35.1772 -19.2863 6.02141 -40.6052 -4.71799
RightUpLeg  -33.757 -8.76098 -8.21243
RightLeg  57.1016 -3.35607 -6.01431
RightFoot  -18.2564 0.628701 12.4244
RightToes  0.000482159 0.542163 -0.142577
Spine  38.1459 2.265 -12.4742
Spine1  -4.38475 -1.3961 -4.39854
HEad  -41.8988 -6.76403 0.704628
LeftShoulder1  8.58731 -15.647 -38.6502
LeftArm  -4.22494 -8.79555 -35.5651
LeftForeArm  101.698 -80.4717 -60.2758
LeftHand  -0.25398 0.0180481 5.50724
RightShoulder  7.67729 12.5072 41.7068
RightArm  4.55871 -8.6356 38.6123
RightForeArm  24.7687 67.7796 26.1763
RightHand  -3.00396 8.02891 -25.9753
LeftUpLeg  -28.7846 5.49757 18.8085
LeftLeg  50.2664 0.764195 1.4407
LeftFoot  -21.9607 -1.56036 -18.0494
LeftToes  1.06246e-005 4.65855e-005 -8.18502e-006
174
root  45.6059 35.5527 -19.2991 6.7292 -37.3676 -4.37827
RightUpLeg  -32.3485 -8.95847 -7.01203
RightLeg  58.2819 -1.89083 -3.78837
RightFoot  -17.9154 0.634527 13.1048
RightToes  0.000482159 0.542163 -0.142577
Spine  38.4129 2.59574 -11.5838
Spine1  -2.35426 -0.934159 -3.39861
HEad  -38.4902 -6.43701 0.473523
LeftShoulder1  8.90048 -15.8644 -39.7149
LeftArm  -7.21937 -7.06489 -35.0778
LeftForeArm  82.5656 -77.3788 -40.45
LeftHand  -0.25398 0.0180481 5.50724
RightShoulder  7.45828 12.3869 40.7463
RightArm  5.67133 -7.21345 39.8478
RightForeArm  26.3254 68.2616 26.7359
RightHand  -3.18543 8.70126 -26.2315
LeftUpLeg  -30.6396 3.89157 17.7726
LeftLeg  48.2192 0.489116 1.02626
LeftFoot  -19.9238 -1.16696 -17.0524
LeftToes  1.06246e-005 4.65855e-005 -8.18502e-006
175
root  45.846 35.8858 -19.2612 7.34673 -34.553 -3.63191
RightUpLeg  -30.1279 -9.76104 -5.72321
RightLeg  57.3081 -0.387677 -1.12986
RightFoot  -18.4398 0.683332 13.0126
RightToes  0.000482159 0.542163 -0.142577
Spine  38.2932 2.68573 -11.0311
Spine1  -0.912647 -0.841005 -2.37505
HEad  -35.5552 -6.64989 1.45885
LeftShoulder1  8.99288 -15.5446 -40.9041
LeftArm  -11.3399 -5.49885 -33.6405
LeftForeArm  69.0402 -72.0232 -26.4439
LeftHand  -0.25398 0.0180481 5.50724
RightShoulder  7.2555 12.1517 40.1927
RightArm  6.71152 -5.66808 40.4925
RightForeArm  30.1846 69.0317 27.431
RightHand  -3.12184 8.72486 -25.6849
LeftUpLeg  -31.8115 2.67808 16.6038
LeftLeg  45.7158 -0.0616612 0.348774
LeftFoot  -18.5102 -0.969286 -17.1296
LeftToes  1.06246e-005 4.65855e-005 -8.18502e-006
176
root  46.029 36.1635 -19.1904 8.13181 -32.2967 -3.03661
RightUpLeg  -27.4811 -10.6526 -4.2912
RightLeg  53.6892 -1.20889 -2.11247
RightFoot  -20.8888 0.75953 10.8577
RightToes  0.000482159 0.542163 -0.142577
Spine  38.3954 2.47629 -10.1126
Spine1  -0.525993 -0.941166 -1.77737
HEad  -33.1021 -7.51727 3.4444
LeftShoulder1  8.78734 -14.9235 -41.3512
LeftArm  -16.063 -3.7506 -32.1295
LeftForeArm  60.129 -64.4747 -17.4163
LeftHand  -0.25398 0.0180481 5.50724
RightShoulder  7.24159 12.0322 40.4443
RightArm  7.07243 -4.64034 40.4149
RightForeArm  34.2128 69.7994 28.1589
RightHand  -2.9305 8.41636 -24.7048
LeftUpLeg  -32.894 2.21961 15.54
LeftLeg  43.6487 -0.640163 -0.254989
LeftFoot  -17.5596 -0.822145 -16.9434
LeftToes  1.06246e-005 4.65855e-005 -8.18502e-006
177
root  46.2057 36.3716 -19.1276 8.73979 -30.66 -2.45692
RightUpLeg  -25.4195 -10.8555 -3.55635
RightLeg  49.3751 -4.30461 -5.71974
RightFoot  -23.8425 0.739818 8.1824
RightToes  0.000482159 0.542163 -0.142577
Spine  39.0526 2.29959 -8.95147
Spine1  -0.61725 -0.925775 -1.40327
HEad  -31.2713 -8.78377 5.20524
LeftShoulder1  8.64325 -14.5625 -41.4983
LeftArm  -20.7497 -2.17871 -30.5727
LeftForeArm  52.5081 -54.9151 -11.6232
LeftHand  -0.25398 0.0180481 5.50724
RightShoulder  7.19293 11.9457 40.3932
RightArm  6.63032 -3.99684 40.3696
RightForeArm  35.5175 70.4423 29.2111
RightHand  -2.97048 8.63249 -24.6527
LeftUpLeg  -33.9191 2.16207 14.4432
LeftLeg  42.306 -1.16004 -0.739837
LeftFoot  -16.4921 -0.626326 -16.0135
LeftToes  1.06246e-005 4.65855e-005 -8.18502e-006
178
root  46.4354 36.5351 -19.038 9.12115 -29.7379 -1.80954
RightUpLeg  -24.6613 -10.4439 -4.02233
RightLeg  46.5739 -6.69233 -7.87014
RightFoot  -24.6979 0.709879 7.48404
RightToes  0.000482159 0.542163 -0.142577
Spine  39.8928 2.05177 -7.77713
Spine1  -0.67258 -0.904238 -1.229
HEad  -30.4709 -9.78229 6.3201
LeftShoulder1  8.68176 -14.5996 -41.606
LeftArm  -24.9459 -0.829717 -28.5964
LeftForeArm  43.9745 -43.638 -7.71276
LeftHand  -0.25398 0.0180481 5.50724
RightShoulder  7.05449 11.7977 39.9638
RightArm  6.02526 -2.79298 40.4123
RightForeArm  33.8283 70.5722 29.8135
RightHand  -3.19818 9.17505 -25.52
LeftUpLeg  -34.5491 1.85891 13.2646
LeftLeg  41.2376 -1.45269 -0.97985
LeftFoot  -15.6551 -0.480046 -15.1623
LeftToes  1.06246e-005 4.65855e-005 -8.18502e-006
179
root  46.7156 36.6935 -18.8737 9.80679 -29.525 -1.46486
RightUpLeg  -24.964 -10.2659 -4.86605
RightLeg  45.1527 -6.76658 -7.55215
RightFoot  -23.5757 0.755881 8.54263
RightToes  0.000482159 0.542163 -0.142577
Spine  40.5459 1.62004 -6.70376
Spine1  -0.639885 -1.03773 -1.14946
HEad  -31.0408 -9.89123 7.27822
LeftShoulder1  8.80369 -14.8283 -41.6676
LeftArm  -28.0103 0.875527 -26.2439
LeftForeArm  34.9532 -31.6554 -4.9712
LeftHand  -0.25398 0.0180481 5.50724
RightShoulder  6.9892 11.6887 39.8706
RightArm  5.52176 -0.76699 40.0359
RightForeArm  31.3133 69.9852 29.0637
RightHand  -3.29322 9.22351 -26.1593
LeftUpLeg  -35.0143 1.44134 12.3237
LeftLeg  40.3555 -0.937379 -0.473351
LeftFoot  -15.6312 -0.455997 -14.6074
LeftToes  1.06246e-005 4.65855e-005 -8.18502e-006
180
root  46.9875 36.886 -18.6254 11.0583 -29.9391 -1.59827
RightUpLeg  -25.4607 -10.6238 -5.19197
RightLeg  43.4956 -6.36343 -6.72962
RightFoot  -22.1348 0.690603 8.8687
RightToes  0.000482159 0.542163 -0.142577
Spine  40.9956 1.37735 -6.02548
Spine1  -0.711877 -1.15834 -0.633954
HEad  -32.6079 -9.05562 8.4092
LeftShoulder1  9.01116 -15.1674 -41.8889
LeftArm  -28.1614 3.36075 -24.0311
LeftForeArm  25.7471 -20.4025 -2.92472
LeftHand  -0.25398 0.0180481 5.50724
RightShoulder  7.04904 11.7045 40.1977
RightArm  4.73175 1.262 39.1426
RightForeArm  29.5232 68.8846 27.2832
RightHand  -3.20581 8.80763 -26.2019
LeftUpLeg  -35.5871 1.82241 11.6477
LeftLeg  39.7925 0.830577 1.121
LeftFoot  -16.0252 -0.46273 -13.6024
LeftToes  1.06246e-005 4.65855e-005 -8.18502e-006
181
root  47.2144 37.1179 -18.28 12.5218 -30.7341 -1.9489
RightUpLeg  -25.4747 -11.2634 -5.21731
RightLeg  40.7907 -6.1916 -5.9901
RightFoot  -21.1537 0.557855 8.16343
RightToes  0.000482159 0.542163 -0.142577
Spine  41.3365 1.55875 -5.8836
Spine1  -1.03271 -1.11707 0.496559
HEad  -34.2265 -7.75177 9.61428
LeftShoulder1  9.26941 -15.5505 -42.247
LeftArm  -23.9031 6.34098 -22.6285
LeftForeArm  16.384 -10.7846 -1.52991
LeftHand  -0.25398 0.0180481 5.50724
RightShoulder  7.12903 11.7581 40.5394
RightArm  3.45804 2.54715 38.064
RightForeArm  27.6162 67.4771 25.2678
RightHand  -3.18875 8.67471 -26.3014
LeftUpLeg  -35.9837 3.37739 10.8909
LeftLeg  39.3292 3.20457 3.18973
LeftFoot  -16.1123 -0.404148 -11.9649
LeftToes  1.06246e-005 4.65855e-005 -8.18502e-006
